<svg width="154" height="56" viewBox="0 0 154 56" fill="none" xmlns="http://www.w3.org/2000/svg">
<path d="M134.891 34.8074L134.113 34.6877C134.053 34.7476 133.874 34.8074 133.635 34.927C133.396 35.0466 133.156 35.1064 132.857 35.226C132.558 35.2858 132.319 35.4054 132.02 35.4652C131.781 35.525 131.542 35.525 131.422 35.525C130.704 35.525 130.226 35.1662 129.987 34.4485C129.747 33.7308 129.568 32.7739 129.508 31.6376V29.4846C129.508 29.0061 129.508 28.5277 129.508 28.0492C129.508 27.5708 129.508 27.0923 129.508 26.6139C129.508 25.657 129.508 24.7599 129.508 23.803C129.508 23.2049 129.508 22.547 129.568 21.8892V17.2841H129.628C129.628 16.5664 129.628 15.8487 129.628 15.1909C129.628 14.4134 129.688 13.5761 129.688 12.679V11.9613C128.372 12.0211 127.415 12.2603 126.757 12.679C126.099 13.0378 125.74 13.5163 125.561 13.9947C125.561 14.5928 125.501 15.2507 125.441 15.9085C125.382 16.5664 124.963 31.518 124.963 31.518C124.963 32.4151 125.023 33.3122 125.142 34.2093C125.262 35.1064 125.561 35.9437 125.92 36.6614C126.279 37.379 126.817 37.9771 127.535 38.3957C128.192 38.8144 129.09 39.0536 130.226 39.0536C130.944 39.0536 131.661 38.934 132.439 38.7546C133.216 38.5752 133.814 38.3359 134.352 37.9771C134.652 37.6781 134.891 37.379 134.951 37.1398C134.951 36.9604 135.01 36.781 135.01 36.5417C135.01 36.3025 135.01 36.1231 135.01 35.8839C135.01 35.7045 135.01 35.4652 135.01 35.3456C134.951 35.1064 134.951 34.927 134.891 34.8074Z" fill="white"/>
<path d="M67.4287 45.1539V50.6561C67.4287 51.0149 67.4287 51.314 67.4287 51.5532C67.4287 51.7924 67.4287 52.0317 67.4287 52.2111C67.3689 52.2709 67.3091 52.2709 67.2493 52.3307C67.1895 52.3307 67.1297 52.3905 67.0101 52.3905C66.9503 52.3905 66.8307 52.3905 66.7111 52.3905C66.5914 52.3905 66.412 52.3905 66.2326 52.3905C66.113 52.2111 66.0532 52.0316 66.0532 51.7924V45.1539H64.6178C64.4982 45.1539 64.4384 45.1539 64.3188 45.1539C64.1992 45.1539 64.0796 45.1539 63.96 45.0941C63.96 45.0343 63.96 45.0343 63.96 44.9745C63.96 44.9147 63.96 44.9147 63.96 44.9147C63.96 44.8549 63.96 44.7353 64.0198 44.6157C64.0198 44.496 64.0796 44.4362 64.0796 44.3166C64.0796 44.2568 64.1394 44.197 64.1394 44.197C64.1992 44.1372 64.1992 44.1372 64.259 44.0774H64.4384H64.4982C64.4982 44.0774 64.558 44.0774 64.6178 44.0774C64.7374 44.0774 64.9169 44.0774 65.0963 44.0774C65.2757 44.0774 65.4551 44.0774 65.6943 44.0774H69.5818C69.5818 44.197 69.5818 44.3764 69.5818 44.496C69.5818 44.6157 69.522 44.7353 69.522 44.8549C69.522 44.9745 69.4622 45.0343 69.3425 45.0343C69.2827 45.0941 69.1631 45.0941 69.1631 45.0941H67.4287V45.1539Z" fill="white"/>
<path d="M71.1364 47.5462C70.957 47.5462 70.8374 47.5462 70.6579 47.606C70.5383 47.6658 70.3589 47.7256 70.2991 47.8452V51.7925C70.2991 51.9121 70.2991 51.9719 70.2991 52.0317C70.2991 52.0915 70.2393 52.2111 70.1795 52.2709C70.1197 52.3307 70.0599 52.3307 70.0001 52.3905C69.9403 52.3905 69.8805 52.4503 69.7608 52.4503C69.6412 52.4503 69.5814 52.4503 69.402 52.4503C69.2824 52.4503 69.103 52.4503 68.9236 52.4503C68.9236 52.0915 68.9236 51.7327 68.9236 51.314C68.9236 50.8954 68.9236 50.4169 68.9236 49.9385V47.8452C68.9236 47.6658 68.9236 47.4864 68.8638 47.307C68.8039 47.1276 68.8039 47.008 68.7441 46.8883C68.8039 46.8285 68.8638 46.7687 68.9236 46.7089C68.9834 46.6491 69.103 46.5893 69.2824 46.5295C69.3422 46.5295 69.3422 46.5295 69.402 46.5295H69.4618C69.5814 46.5295 69.701 46.5295 69.7608 46.5893C69.8207 46.6491 69.8805 46.7089 69.9403 46.7687C70.0599 46.7089 70.1795 46.5893 70.2991 46.5295C70.4187 46.4697 70.5383 46.4099 70.6579 46.3501C70.7776 46.2903 70.8972 46.2903 71.0168 46.2305C71.1364 46.2305 71.256 46.2305 71.3756 46.2305C71.7345 46.2903 71.9737 46.4099 71.9737 46.5893C71.9737 46.7089 71.9737 46.8285 71.9139 46.9481C71.8541 47.0678 71.8541 47.2472 71.7345 47.3668C71.6747 47.3668 71.6747 47.3668 71.6747 47.3668C71.6747 47.3668 71.6148 47.3668 71.555 47.3668C71.4952 47.3668 71.4354 47.3668 71.3756 47.3668C71.3158 47.3668 71.256 47.3668 71.1962 47.3668C71.1364 47.3668 71.1364 47.3668 71.0766 47.3668C71.1364 47.5462 71.1364 47.5462 71.1364 47.5462Z" fill="white"/>
<path d="M72.8113 47.3069C72.8113 47.2471 72.8113 47.2471 72.8113 47.1873V47.1275C72.8113 47.0677 72.8113 47.0078 72.8711 46.948C72.9309 46.8882 73.0505 46.8284 73.1701 46.7686C73.2897 46.7088 73.4691 46.649 73.6485 46.5892C73.828 46.5294 74.0074 46.4696 74.1868 46.4098C74.3662 46.35 74.6054 46.35 74.8447 46.35C74.9643 46.35 75.0241 46.35 75.0839 46.35C75.1437 46.35 75.2035 46.35 75.3231 46.35C75.8016 46.4098 76.1604 46.5294 76.3398 46.8284C76.5193 47.1275 76.6389 47.5461 76.6389 48.0844V48.6226C76.6389 48.8618 76.6389 49.1011 76.6389 49.3403C76.6389 49.5795 76.6389 49.8187 76.6389 50.058C76.6389 50.1178 76.6389 50.2374 76.6389 50.2972C76.6389 50.357 76.6389 50.4766 76.6389 50.5962C76.6389 50.7158 76.6389 50.7757 76.6389 50.8953C76.6389 51.0149 76.6389 51.0747 76.6389 51.1345C76.6389 51.2541 76.6389 51.3139 76.6389 51.4335C76.6389 51.4933 76.6987 51.5531 76.7585 51.6129C76.8183 51.6727 76.8781 51.6727 76.9977 51.6727C76.9977 51.7924 76.9977 51.8522 76.9977 51.9718C76.9977 52.0914 76.9977 52.1512 76.9977 52.211C76.9379 52.2708 76.8183 52.3904 76.6987 52.4502C76.5791 52.51 76.3996 52.5698 76.2202 52.5698C76.1006 52.5698 75.9212 52.51 75.8016 52.4502C75.682 52.3904 75.5623 52.2708 75.4427 52.211C75.3829 52.211 75.3829 52.2708 75.3231 52.3306C75.2633 52.3904 75.2035 52.3904 75.2035 52.4502C75.0241 52.51 74.9045 52.5698 74.7251 52.5698C74.5456 52.5698 74.426 52.6297 74.2466 52.6297C74.0074 52.6297 73.828 52.5698 73.6485 52.51C73.4691 52.4502 73.2897 52.3306 73.1103 52.211C72.9309 52.0914 72.8113 51.912 72.7514 51.6727C72.6916 51.4335 72.6318 51.1943 72.6318 50.8953C72.6318 50.5364 72.6916 50.1776 72.8711 49.9384C73.0505 49.6991 73.2299 49.4599 73.4691 49.3403C73.7084 49.1609 73.9476 49.1011 74.1868 48.9815C74.426 48.9217 74.6653 48.8618 74.8447 48.8618C74.9045 48.8618 74.9643 48.8618 75.0241 48.8618C75.0839 48.8618 75.1437 48.8618 75.2035 48.8618C75.2633 48.8618 75.3231 48.8618 75.3829 48.8618C75.4427 48.8618 75.4427 48.8618 75.5025 48.8618V48.2638C75.5025 48.0246 75.5025 47.7853 75.4427 47.6657C75.3829 47.5461 75.2633 47.4863 75.0839 47.4863C74.9045 47.4863 74.6653 47.5461 74.426 47.6059C74.1868 47.6657 74.0074 47.7255 73.828 47.7853C73.7682 47.8451 73.7084 47.8451 73.5887 47.8451C73.4691 47.8451 73.4093 47.8451 73.3495 47.8451C73.2299 47.7255 73.1701 47.6657 73.1701 47.5461C73.1701 47.4265 72.8113 47.3667 72.8113 47.3069ZM75.2035 51.1345C75.2035 51.0747 75.2035 50.9551 75.2035 50.8953C75.2035 50.8355 75.2035 50.7158 75.2035 50.5364V49.6991H75.0839C75.0241 49.6991 74.9643 49.6991 74.9045 49.6991C74.8447 49.6991 74.7849 49.6991 74.7251 49.6991C74.6054 49.6991 74.4858 49.7589 74.3662 49.8188C74.2466 49.8786 74.127 49.9384 74.0672 49.9982C73.9476 50.058 73.8878 50.1776 73.828 50.2972C73.7682 50.4168 73.7682 50.5962 73.7682 50.7757C73.7682 51.0747 73.828 51.2541 73.9476 51.3737C74.0672 51.4933 74.1868 51.5531 74.3064 51.5531H74.3662C74.5456 51.5531 74.7251 51.4933 74.8447 51.4335C75.0241 51.3737 75.1437 51.2541 75.2035 51.1943C75.2035 51.1943 75.2035 51.1943 75.2035 51.1345Z" fill="white"/>
<path d="M79.6291 49.9384C79.6889 50.2374 79.7487 50.4767 79.8085 50.7159C79.8085 50.5963 79.8683 50.5365 79.8683 50.4168C79.8683 50.2972 79.9281 50.1776 79.9879 50.058C80.0477 49.8188 80.1075 49.5197 80.1674 49.2207C80.2272 48.9217 80.287 48.6825 80.3468 48.3834C80.4066 48.2638 80.4066 48.0844 80.4664 47.9648C80.5262 47.8452 80.5262 47.6657 80.586 47.6059C80.6458 47.4265 80.7056 47.2471 80.7056 47.1275C80.7654 46.9481 80.7654 46.8285 80.8252 46.649C80.885 46.5892 80.9448 46.5892 81.0046 46.5892C81.0644 46.5892 81.1243 46.5892 81.2439 46.5892C81.3037 46.5892 81.4233 46.5892 81.4831 46.5892C81.6027 46.5892 81.7223 46.5892 81.9615 46.649C82.0214 46.7088 82.0213 46.7686 82.0213 46.7686V46.8285C82.0213 46.8883 82.0214 47.0079 81.9615 47.0677C81.9615 47.1873 81.9017 47.3069 81.8419 47.4265C81.7821 47.6658 81.7223 47.8452 81.6625 48.0844C81.6027 48.3236 81.5429 48.503 81.4831 48.7423C81.3037 49.2805 81.1243 49.8786 80.9448 50.4767C80.7654 51.0747 80.586 51.6728 80.3468 52.3306C80.287 52.3905 80.1674 52.4503 80.1075 52.5101C79.9879 52.5699 79.9281 52.5699 79.8085 52.5699H79.7487H79.6889H79.6291C79.5095 52.5699 79.3899 52.5699 79.2703 52.5101C79.1506 52.4503 79.0908 52.3905 79.031 52.2708C78.9114 51.7924 78.732 51.2541 78.5526 50.7159C78.3732 50.1776 78.1937 49.5197 77.9545 48.8021C77.8947 48.7423 77.8947 48.6227 77.8349 48.3834C77.7751 48.204 77.7153 47.9648 77.6555 47.7854C77.5957 47.6059 77.5359 47.3667 77.4761 47.2471C77.4163 47.0677 77.4163 46.9481 77.3564 46.9481C77.4163 46.8285 77.5359 46.7088 77.6555 46.649C77.8349 46.5892 78.1339 46.5892 78.4928 46.5892C78.5526 46.649 78.6124 46.7088 78.6722 46.8285C78.732 46.9481 78.732 47.0079 78.7918 47.1275C78.7918 47.1873 78.8516 47.3069 78.8516 47.3667C78.8516 47.4863 78.9114 47.5461 78.9114 47.6657C78.9712 47.7854 78.9712 47.9648 79.031 48.1442C79.0908 48.3236 79.0908 48.4432 79.1506 48.6227C79.2104 48.8619 79.2703 49.1011 79.3301 49.3403C79.3899 49.5796 79.5693 49.6992 79.6291 49.9384Z" fill="white"/>
<path d="M85.2511 51.5531C85.4903 51.5531 85.7295 51.5531 85.9688 51.4933C86.208 51.4335 86.4472 51.3737 86.6865 51.1943C86.7463 51.3139 86.7463 51.4335 86.7463 51.5531C86.7463 51.6727 86.7463 51.7326 86.8061 51.8522C86.8061 51.912 86.8061 51.9718 86.7463 52.0316C86.6865 52.0914 86.6266 52.1512 86.5668 52.211C86.507 52.2708 86.3874 52.3306 86.3276 52.3904C86.208 52.4502 86.1482 52.4502 86.0286 52.51C85.909 52.51 85.7894 52.5698 85.6099 52.5698C85.4305 52.5698 85.2511 52.6297 85.0119 52.6297C84.7128 52.6297 84.4138 52.5698 84.055 52.51C83.7559 52.4502 83.4569 52.2708 83.2177 52.0316C82.9784 51.7924 82.799 51.4933 82.6794 51.0747C82.5598 50.7158 82.5 50.2374 82.5 49.6991C82.5 49.1011 82.5598 48.5628 82.6794 48.1442C82.799 47.7255 82.9784 47.3667 83.2177 47.1275C83.4569 46.8882 83.6961 46.649 83.9952 46.5294C84.2942 46.4098 84.653 46.35 85.0119 46.35C85.6099 46.35 86.0884 46.5294 86.3874 46.8284C86.6865 47.1275 86.8659 47.6059 86.9257 48.1442C86.9257 48.2638 86.9257 48.3236 86.9257 48.4432C86.9257 48.5628 86.9257 48.6226 86.9257 48.7422C86.9257 49.0413 86.9257 49.2805 86.8659 49.4599C86.8061 49.5197 86.6266 49.5795 86.4472 49.6393C86.2678 49.6991 86.0884 49.7589 85.8492 49.7589C85.6697 49.7589 85.4305 49.8188 85.1315 49.8188C84.8324 49.8188 84.5334 49.8188 84.2344 49.8188C84.1148 49.8188 84.055 49.8188 83.9952 49.8188C83.9354 49.8188 83.8756 49.8188 83.7559 49.8188C83.7559 50.4168 83.8755 50.8953 84.1148 51.1345C84.5334 51.4335 84.8923 51.5531 85.2511 51.5531ZM84.8923 47.3069C84.653 47.3667 84.4736 47.4863 84.2942 47.7853C84.1148 48.0844 83.9952 48.4432 83.9354 49.0413H84.2942C84.5334 49.0413 84.7128 49.0413 84.9521 49.0413C85.1913 49.0413 85.3707 49.0413 85.4903 48.9815C85.5501 48.9815 85.5501 48.9815 85.6099 48.9815C85.6697 48.9815 85.6697 48.9815 85.7295 48.9217C85.7295 48.8618 85.7295 48.802 85.7894 48.7422C85.7894 48.6824 85.7894 48.6226 85.7894 48.503V48.4432V48.3834V48.2638C85.7295 47.9049 85.6697 47.6657 85.5501 47.5461C85.3707 47.3667 85.1913 47.3069 84.8923 47.3069Z" fill="white"/>
<path d="M89.3177 51.4933C89.3177 51.5531 89.3775 51.6129 89.4373 51.6728C89.4971 51.7326 89.5569 51.7326 89.6765 51.7326C89.6765 51.8522 89.6765 51.912 89.6765 52.0316C89.6765 52.1512 89.6765 52.211 89.6765 52.2708C89.6167 52.3904 89.4971 52.4502 89.3775 52.51C89.2579 52.5699 89.0785 52.6297 88.899 52.6297C88.7794 52.6297 88.7196 52.6297 88.6 52.5698C88.4804 52.51 88.4206 52.51 88.3608 52.4502C88.2412 52.3904 88.1814 52.2708 88.1216 52.1512C88.0618 52.0316 88.002 51.912 88.002 51.7924V45.3931C88.002 45.094 88.002 44.8548 88.002 44.6156C88.002 44.3764 88.002 44.1969 88.002 44.0175C88.0618 43.8381 88.2412 43.7185 88.4206 43.7185C88.6598 43.6587 88.899 43.6587 89.1981 43.6587C89.2579 43.7783 89.2579 43.9577 89.2579 44.1371C89.2579 44.3166 89.2579 44.5558 89.2579 44.8548V51.2541C89.3177 51.3139 89.3177 51.4335 89.3177 51.4933Z" fill="white"/>
<path d="M96.6138 51.4336C96.6138 51.4934 96.6138 51.4934 96.6138 51.5532C96.6138 51.613 96.6138 51.6728 96.6138 51.7326C96.6138 51.7924 96.6138 51.8522 96.6138 51.912C96.6138 51.9718 96.6138 52.0317 96.6138 52.0915C96.6138 52.1513 96.554 52.2709 96.4344 52.3307C96.3147 52.4503 96.1353 52.5101 95.8961 52.5699C95.6569 52.6297 95.4774 52.6297 95.298 52.6297C94.999 52.6297 94.7 52.5699 94.5206 52.4503C94.3411 52.3307 94.1617 52.1513 94.0421 51.9718C93.9225 51.7924 93.8627 51.5532 93.8029 51.2542C93.7431 51.0149 93.7431 50.7159 93.7431 50.4767V47.4864C93.5636 47.4864 93.444 47.4864 93.3244 47.4266C93.2048 47.3668 93.0852 47.3667 93.0254 47.3069C93.0254 47.1275 93.0254 47.0079 93.0254 46.9481C93.0254 46.8883 93.0852 46.8883 93.145 46.8285C93.2646 46.7687 93.3244 46.7089 93.444 46.7089C93.5636 46.7089 93.6234 46.6491 93.6833 46.6491C93.7431 46.6491 93.7431 46.6491 93.8029 46.6491C93.8029 46.6491 93.8627 46.6491 93.9225 46.6491C93.9225 46.4697 93.9225 46.2902 93.9823 46.1108C93.9823 45.9314 93.9823 45.752 94.0421 45.5726C94.1019 45.4529 94.2215 45.3333 94.4009 45.2137C94.5804 45.0941 94.8794 45.0343 95.2382 45.0343V45.2137C95.2382 45.4529 95.2382 45.6922 95.2382 45.9314C95.2382 46.1706 95.2382 46.35 95.2382 46.5893H96.853C96.853 46.9481 96.7932 47.1873 96.7334 47.3069C96.6736 47.4266 96.554 47.4864 96.4344 47.5462C96.3745 47.5462 96.3147 47.5462 96.2549 47.5462C96.1951 47.5462 96.1353 47.5462 96.0755 47.5462C95.9559 47.5462 95.8363 47.5462 95.7167 47.5462C95.5971 47.5462 95.4176 47.5462 95.1784 47.5462C95.1784 47.8452 95.1784 48.0844 95.1784 48.3835C95.1784 48.6825 95.1784 48.9217 95.1784 49.1609C95.1784 49.2806 95.1784 49.46 95.1784 49.5796C95.1784 49.6992 95.1784 49.8188 95.1784 49.9982V50.5963C95.1784 50.8953 95.2382 51.1944 95.298 51.3738C95.3578 51.5532 95.4775 51.6728 95.7167 51.6728C95.7765 51.6728 95.8363 51.6728 95.8961 51.6728C95.9559 51.6728 96.0755 51.613 96.1353 51.613C96.1951 51.613 96.3147 51.5532 96.3745 51.5532C96.4344 51.5532 96.4942 51.4934 96.4942 51.4934L96.6138 51.4336Z" fill="white"/>
<path d="M97.5713 52.4502C97.5713 52.0914 97.5713 51.6728 97.5713 51.2541C97.5713 50.8355 97.5713 50.357 97.5713 49.8786V45.1539C97.5713 44.9146 97.5713 44.6754 97.5713 44.496C97.5713 44.3166 97.5713 44.1371 97.5713 44.0175C97.6311 43.8381 97.8105 43.7185 97.9899 43.7185C98.1694 43.6587 98.4684 43.6587 98.7674 43.6587C98.8272 43.7783 98.8272 43.8381 98.887 43.9577C98.887 44.0773 98.9468 44.2568 98.9468 44.496V46.8882C99.0665 46.8284 99.1263 46.7686 99.2459 46.7088C99.3655 46.649 99.4253 46.5892 99.5449 46.5892C99.6645 46.5294 99.7841 46.5294 99.9037 46.4696C100.023 46.4696 100.203 46.4098 100.382 46.4098C100.681 46.4098 100.98 46.4696 101.16 46.5294C101.339 46.5892 101.519 46.7686 101.698 46.948C101.818 47.1275 101.937 47.3667 101.997 47.6657C102.057 47.9648 102.057 48.3236 102.057 48.7422V50.5364C102.057 50.8953 102.057 51.1943 102.057 51.4933C102.057 51.7924 102.057 52.0316 102.057 52.2708C101.997 52.3306 101.997 52.3306 101.937 52.3904C101.877 52.3904 101.818 52.4502 101.758 52.4502C101.698 52.4502 101.578 52.4502 101.399 52.51C101.279 52.51 101.1 52.51 100.861 52.51C100.801 52.3306 100.741 52.0914 100.741 51.912V48.9217C100.741 48.802 100.741 48.6824 100.741 48.6226C100.741 48.5628 100.741 48.4432 100.741 48.3834C100.741 48.0246 100.681 47.7853 100.502 47.6657C100.382 47.5461 100.203 47.4863 100.023 47.4863C99.7841 47.4863 99.6047 47.5461 99.4253 47.6657C99.2459 47.7853 99.0665 47.9049 98.9468 48.0246V51.7924C98.9468 51.912 98.9468 52.0316 98.9468 52.1512C98.9468 52.2708 98.887 52.3306 98.8272 52.4502C98.7674 52.51 98.7076 52.51 98.6478 52.5698C98.588 52.6297 98.5282 52.6297 98.4684 52.6297C98.4086 52.6297 98.289 52.6297 98.1694 52.6297C98.0497 52.6297 97.9301 52.6297 97.7507 52.6297L97.5713 52.4502Z" fill="white"/>
<path d="M105.705 51.5531C105.944 51.5531 106.184 51.5531 106.423 51.4933C106.662 51.4335 106.901 51.3737 107.141 51.1943C107.2 51.3139 107.2 51.4335 107.2 51.5531C107.2 51.6727 107.2 51.7326 107.26 51.8522C107.26 51.912 107.26 51.9718 107.2 52.0316C107.141 52.0914 107.081 52.1512 107.021 52.211C106.961 52.2708 106.842 52.3306 106.782 52.3904C106.662 52.4502 106.602 52.4502 106.483 52.51C106.363 52.51 106.243 52.5698 106.064 52.5698C105.885 52.5698 105.705 52.6297 105.466 52.6297C105.167 52.6297 104.868 52.5698 104.509 52.51C104.21 52.4502 103.911 52.2708 103.672 52.0316C103.433 51.7924 103.253 51.4933 103.134 51.0747C103.014 50.7158 102.954 50.2374 102.954 49.6991C102.954 49.1011 103.014 48.5628 103.134 48.1442C103.253 47.7255 103.433 47.3667 103.672 47.1275C103.911 46.8882 104.15 46.649 104.449 46.5294C104.748 46.4098 105.107 46.35 105.466 46.35C106.064 46.35 106.542 46.5294 106.842 46.8284C107.141 47.1275 107.32 47.6059 107.38 48.1442C107.38 48.2638 107.38 48.3236 107.38 48.4432C107.38 48.5628 107.38 48.6226 107.38 48.7422C107.38 49.0413 107.38 49.2805 107.32 49.4599C107.26 49.5197 107.081 49.5795 106.901 49.6393C106.722 49.6991 106.542 49.7589 106.303 49.7589C106.124 49.7589 105.885 49.8188 105.586 49.8188C105.287 49.8188 104.988 49.8188 104.688 49.8188C104.569 49.8188 104.509 49.8188 104.449 49.8188C104.389 49.8188 104.33 49.8188 104.21 49.8188C104.21 50.4168 104.33 50.8953 104.569 51.1345C104.988 51.4335 105.287 51.5531 105.705 51.5531ZM105.346 47.3069C105.107 47.3667 104.928 47.4863 104.748 47.7853C104.569 48.0844 104.449 48.503 104.389 49.0413H104.748C104.988 49.0413 105.167 49.0413 105.406 49.0413C105.645 49.0413 105.825 49.0413 105.944 48.9815C106.004 48.9815 106.004 48.9815 106.064 48.9815C106.124 48.9815 106.124 48.9815 106.184 48.9217C106.184 48.8618 106.184 48.802 106.243 48.7422C106.303 48.6824 106.243 48.6226 106.243 48.503V48.4432V48.3834V48.2638C106.184 47.9049 106.124 47.6657 106.004 47.5461C105.825 47.3667 105.645 47.3069 105.346 47.3069Z" fill="white"/>
<path d="M113.48 47.5462C113.301 47.5462 113.181 47.5462 113.002 47.606C112.882 47.6658 112.703 47.7256 112.643 47.8452V51.7925C112.643 51.9121 112.643 51.9719 112.643 52.0317C112.643 52.0915 112.583 52.2111 112.523 52.2709C112.463 52.3307 112.404 52.3307 112.344 52.3905C112.284 52.3905 112.224 52.4503 112.105 52.4503C112.045 52.4503 111.925 52.4503 111.746 52.4503C111.626 52.4503 111.447 52.4503 111.267 52.4503C111.267 52.0915 111.267 51.7327 111.267 51.314C111.267 50.8954 111.267 50.4169 111.267 49.9385V47.8452C111.267 47.6658 111.267 47.4864 111.208 47.307C111.148 47.1276 111.148 47.008 111.088 46.8883C111.148 46.8285 111.208 46.7687 111.267 46.7089C111.327 46.6491 111.447 46.5893 111.626 46.5295C111.686 46.5295 111.686 46.5295 111.746 46.5295H111.806C111.925 46.5295 112.045 46.5295 112.105 46.5893C112.164 46.6491 112.224 46.7089 112.284 46.7687C112.404 46.7089 112.523 46.5893 112.643 46.5295C112.762 46.4697 112.882 46.4099 113.002 46.3501C113.121 46.2903 113.241 46.2903 113.361 46.2305C113.48 46.2305 113.6 46.2305 113.719 46.2305C114.078 46.2903 114.317 46.4099 114.317 46.5893C114.317 46.7089 114.317 46.8285 114.258 46.9481C114.198 47.0678 114.198 47.2472 114.078 47.3668C114.018 47.3668 114.018 47.3668 114.018 47.3668C114.018 47.3668 113.959 47.3668 113.899 47.3668C113.839 47.3668 113.779 47.3668 113.719 47.3668C113.66 47.3668 113.6 47.3668 113.54 47.3668C113.48 47.3668 113.48 47.3668 113.42 47.3668C113.48 47.5462 113.48 47.5462 113.48 47.5462Z" fill="white"/>
<path d="M115.095 44.4961C115.095 44.0176 115.334 43.7186 115.872 43.7186C116.171 43.7186 116.351 43.7784 116.47 43.898C116.59 44.0176 116.59 44.197 116.59 44.4362C116.59 44.6755 116.53 44.8549 116.41 45.0343C116.291 45.1539 116.111 45.2735 115.812 45.2735C115.573 45.2735 115.394 45.2137 115.274 45.0941C115.155 44.9147 115.095 44.7353 115.095 44.4961ZM116.351 46.5295C116.41 46.6491 116.41 46.7089 116.47 46.8285C116.47 46.9481 116.47 47.1275 116.47 47.4266V51.613C116.47 51.9121 116.41 52.0915 116.291 52.3307C116.291 52.3905 116.231 52.3905 116.171 52.3905C116.111 52.3905 116.052 52.4503 115.992 52.4503C115.932 52.4503 115.812 52.4503 115.633 52.4503C115.513 52.4503 115.334 52.4503 115.095 52.4503V51.4336C115.095 51.2542 115.095 51.0748 115.095 50.8953C115.095 50.7159 115.095 50.5365 115.095 50.2973V48.1442C115.095 47.8452 115.095 47.606 115.095 47.4266C115.095 47.2471 115.095 47.0677 115.095 46.8883C115.155 46.7089 115.334 46.6491 115.513 46.5893C115.693 46.5295 115.932 46.5295 116.231 46.5295H116.351Z" fill="white"/>
<path d="M121.912 48.563C121.912 49.2208 121.733 49.7591 121.314 50.1179C120.956 50.4768 120.417 50.6562 119.759 50.6562C119.64 50.6562 119.52 50.6562 119.46 50.6562C119.401 50.6562 119.281 50.6562 119.221 50.5964L118.982 50.8356L118.922 50.8954V50.9552C118.922 51.0748 119.161 51.1944 119.58 51.1944L120.059 51.2542C120.178 51.2542 120.238 51.2542 120.358 51.2542C120.477 51.2542 120.537 51.2542 120.657 51.2542C120.716 51.2542 120.836 51.2542 120.896 51.2542C120.956 51.2542 121.015 51.2542 121.075 51.3141C121.494 51.3739 121.793 51.5533 122.032 51.7327C122.271 51.9719 122.391 52.271 122.451 52.6298C122.451 52.9288 122.391 53.1681 122.271 53.4671C122.152 53.7661 121.972 54.0053 121.733 54.2446C121.494 54.4838 121.195 54.723 120.896 54.9024C120.537 55.0819 120.238 55.2613 119.819 55.3211C119.64 55.3809 119.46 55.3809 119.281 55.3809C119.102 55.3809 118.862 55.4407 118.683 55.4407C118.384 55.4407 118.085 55.3809 117.846 55.3211C117.606 55.2613 117.427 55.0819 117.367 54.9024C117.307 54.723 117.367 54.5436 117.487 54.3642C117.606 54.1848 117.786 53.9455 117.965 53.7661C118.145 53.5867 118.384 53.3475 118.623 53.1681C118.862 52.9886 119.102 52.8092 119.281 52.6896C119.46 52.7494 119.52 52.9288 119.58 53.0484C119.64 53.2279 119.58 53.3475 119.46 53.4671C119.341 53.5269 119.281 53.6465 119.161 53.7063C119.042 53.8259 118.982 53.8857 118.922 54.0053C118.862 54.0651 118.803 54.1848 118.743 54.2446C118.683 54.3044 118.683 54.3642 118.683 54.424C118.683 54.4838 118.743 54.4838 118.803 54.5436C118.862 54.5436 118.922 54.5436 118.982 54.5436C119.102 54.5436 119.221 54.5436 119.401 54.4838C119.58 54.4838 119.7 54.424 119.819 54.424C119.999 54.3642 120.238 54.3044 120.417 54.1848C120.597 54.0651 120.776 53.9455 120.896 53.7661C121.015 53.6465 121.135 53.4671 121.195 53.2877C121.255 53.1082 121.314 52.9886 121.314 52.869V52.6896C121.255 52.57 121.195 52.4504 121.135 52.3308C121.075 52.2111 120.896 52.1513 120.657 52.1513C120.537 52.1513 120.358 52.1513 120.238 52.0915C120.118 52.0915 119.939 52.0915 119.819 52.0915C119.759 52.0915 119.759 52.0915 119.7 52.0915C119.64 52.0915 119.64 52.0915 119.58 52.0915C119.281 52.0915 119.102 52.0317 118.862 51.9719C118.743 51.9719 118.683 51.9121 118.623 51.9121C118.324 51.7925 118.085 51.6729 117.905 51.5533C117.726 51.4337 117.666 51.1944 117.666 51.015C117.666 50.9552 117.726 50.8356 117.846 50.716C117.965 50.5964 118.025 50.5366 118.145 50.417C118.264 50.2973 118.324 50.2375 118.444 50.1179C118.504 50.1179 118.504 50.0581 118.504 50.0581C118.504 50.0581 118.504 49.9983 118.563 49.9983C118.324 49.8189 118.085 49.5797 117.965 49.3404C117.846 49.0414 117.786 48.7424 117.786 48.3237C117.786 47.9649 117.846 47.6659 117.965 47.3668C118.085 47.0678 118.205 46.8884 118.444 46.6492C118.623 46.4697 118.862 46.2903 119.161 46.2305C119.46 46.1109 119.759 46.0511 120.059 46.0511C120.298 46.0511 120.477 46.1109 120.657 46.1707C120.836 46.2305 121.015 46.2903 121.135 46.3501V46.2903C121.255 46.2903 121.434 46.2903 121.613 46.2903C121.793 46.2903 121.913 46.2903 122.032 46.2903C122.092 46.2903 122.212 46.2903 122.331 46.2903C122.451 46.2903 122.511 46.2903 122.57 46.2903C122.57 46.3501 122.63 46.4099 122.63 46.4697C122.63 46.5295 122.69 46.6491 122.69 46.709C122.69 46.8884 122.63 47.008 122.57 47.1276C122.511 47.2472 122.391 47.307 122.212 47.307C122.092 47.307 122.032 47.307 121.972 47.307C121.912 47.307 121.853 47.307 121.793 47.307C121.912 47.4864 121.972 47.6061 122.032 47.7855C121.853 48.1443 121.912 48.3237 121.912 48.563ZM119.64 47.2472C119.401 47.2472 119.221 47.3668 119.042 47.5462C118.862 47.7257 118.862 48.0845 118.862 48.563C118.922 48.9816 118.982 49.2806 119.161 49.5199C119.341 49.7591 119.52 49.8787 119.879 49.8787C120.178 49.8787 120.358 49.7591 120.477 49.5199C120.597 49.2806 120.657 48.9218 120.597 48.5031C120.537 48.1443 120.477 47.8453 120.298 47.6061C120.118 47.3668 119.939 47.2472 119.64 47.2472Z" fill="white"/>
<path d="M123.168 52.4502C123.168 52.0914 123.168 51.6728 123.168 51.2541C123.168 50.8355 123.168 50.357 123.168 49.8786V45.1539C123.168 44.9146 123.168 44.6754 123.168 44.496C123.168 44.3166 123.168 44.1371 123.168 44.0175C123.228 43.8381 123.407 43.7185 123.587 43.7185C123.766 43.6587 124.065 43.6587 124.364 43.6587C124.424 43.7783 124.424 43.8381 124.484 43.9577C124.484 44.0773 124.544 44.2568 124.544 44.496V46.8882C124.663 46.8284 124.723 46.7686 124.843 46.7088C124.962 46.649 125.022 46.5892 125.142 46.5892C125.261 46.5294 125.381 46.5294 125.5 46.4696C125.62 46.4696 125.799 46.4098 125.979 46.4098C126.278 46.4098 126.577 46.4696 126.756 46.5294C126.936 46.5892 127.115 46.7686 127.295 46.948C127.414 47.1275 127.534 47.3667 127.594 47.6657C127.653 47.9648 127.653 48.3236 127.653 48.7422V50.5364C127.653 50.8953 127.653 51.1943 127.653 51.4933C127.653 51.7924 127.653 52.0316 127.653 52.2708C127.594 52.3306 127.594 52.3306 127.534 52.3904C127.474 52.3904 127.414 52.4502 127.354 52.4502C127.295 52.4502 127.175 52.4502 126.996 52.51C126.876 52.51 126.697 52.51 126.457 52.51C126.398 52.3306 126.338 52.0914 126.338 51.912V48.9217C126.338 48.802 126.338 48.6824 126.338 48.6226C126.338 48.5628 126.338 48.4432 126.338 48.3834C126.338 48.0246 126.278 47.7853 126.098 47.6657C125.979 47.5461 125.799 47.4863 125.62 47.4863C125.381 47.4863 125.201 47.5461 125.022 47.6657C124.843 47.7853 124.663 47.9049 124.544 48.0246V51.7924C124.544 51.912 124.544 52.0316 124.544 52.1512C124.544 52.2708 124.484 52.3306 124.424 52.4502C124.364 52.51 124.304 52.51 124.244 52.5698C124.185 52.6297 124.125 52.6297 124.065 52.6297C124.005 52.6297 123.886 52.6297 123.766 52.6297C123.646 52.6297 123.527 52.6297 123.347 52.6297L123.168 52.4502Z" fill="white"/>
<path d="M132.08 51.4336C132.08 51.4934 132.08 51.4934 132.08 51.5532C132.08 51.613 132.08 51.6728 132.08 51.7326C132.08 51.7924 132.08 51.8522 132.08 51.912C132.08 51.9718 132.08 52.0317 132.08 52.0915C132.08 52.1513 132.02 52.2709 131.9 52.3307C131.781 52.4503 131.601 52.5101 131.362 52.5699C131.123 52.6297 130.943 52.6297 130.764 52.6297C130.465 52.6297 130.166 52.5699 129.986 52.4503C129.807 52.3307 129.628 52.1513 129.508 51.9718C129.388 51.7924 129.329 51.5532 129.269 51.2542C129.209 51.0149 129.209 50.7159 129.209 50.4767V47.4864C129.029 47.4864 128.91 47.4864 128.79 47.4266C128.671 47.3668 128.551 47.3667 128.491 47.3069C128.491 47.1275 128.491 47.0079 128.491 46.9481C128.491 46.8883 128.551 46.8883 128.611 46.8285C128.73 46.7687 128.79 46.7089 128.91 46.7089C129.029 46.7089 129.089 46.6491 129.149 46.6491C129.209 46.6491 129.209 46.6491 129.269 46.6491C129.269 46.6491 129.329 46.6491 129.388 46.6491C129.388 46.4697 129.388 46.2902 129.448 46.1108C129.448 45.9314 129.448 45.752 129.508 45.5726C129.568 45.4529 129.687 45.3333 129.867 45.2137C130.046 45.0941 130.345 45.0343 130.704 45.0343V45.2137C130.704 45.4529 130.704 45.6922 130.704 45.9314C130.704 46.1706 130.704 46.35 130.704 46.5893H132.319C132.319 46.9481 132.259 47.1873 132.199 47.3069C132.139 47.4266 132.02 47.4864 131.9 47.5462C131.84 47.5462 131.781 47.5462 131.721 47.5462C131.661 47.5462 131.601 47.5462 131.541 47.5462C131.422 47.5462 131.302 47.5462 131.183 47.5462C131.063 47.5462 130.883 47.5462 130.644 47.5462C130.644 47.8452 130.644 48.0844 130.644 48.3835C130.644 48.6825 130.644 48.9217 130.644 49.1609C130.644 49.2806 130.644 49.46 130.644 49.5796C130.644 49.6992 130.644 49.8188 130.644 49.9982V50.5963C130.644 50.8953 130.704 51.1944 130.764 51.3738C130.824 51.5532 130.943 51.6728 131.183 51.6728C131.242 51.6728 131.302 51.6728 131.362 51.6728C131.422 51.6728 131.541 51.613 131.601 51.613C131.661 51.613 131.781 51.5532 131.84 51.5532C131.9 51.5532 131.96 51.4934 131.96 51.4934L132.08 51.4336Z" fill="white"/>
<path d="M138.299 52.0316C138.299 52.0914 138.299 52.0914 138.239 52.1512C138.179 52.2708 138.179 52.3306 138.119 52.3904C138.06 52.4502 138 52.51 137.94 52.51C137.88 52.51 137.82 52.51 137.701 52.51C137.581 52.51 137.402 52.51 137.163 52.5699C137.103 52.51 136.983 52.3904 136.923 52.2708C136.864 52.1512 136.804 52.0316 136.744 51.912C136.684 51.7326 136.624 51.4933 136.565 51.1943C136.505 50.9551 136.445 50.656 136.325 50.357C136.265 50.058 136.146 49.7589 136.086 49.4599C136.026 49.1609 135.907 48.8619 135.847 48.5628C135.727 48.0246 135.608 47.6059 135.488 47.3069C135.428 47.0079 135.309 46.7686 135.309 46.7088C135.368 46.5892 135.488 46.5294 135.667 46.4696C135.847 46.4098 136.146 46.4098 136.505 46.4098C136.565 46.4696 136.624 46.5294 136.684 46.5892C136.744 46.649 136.744 46.7686 136.744 46.8284C136.864 47.3069 136.983 47.8451 137.103 48.3834C137.163 48.5628 137.163 48.7422 137.222 48.8619C137.222 49.0413 137.282 49.1609 137.342 49.3403C137.402 49.5197 137.402 49.6991 137.402 49.7589C137.402 49.8188 137.462 49.9982 137.462 50.058C137.462 50.1178 137.521 50.2374 137.521 50.2972C137.521 50.357 137.581 50.4168 137.581 50.5364C137.641 50.357 137.641 50.1776 137.701 49.9384C137.761 49.6991 137.82 49.4599 137.88 49.1609C137.88 49.1011 137.94 48.9217 138 48.7422C138.06 48.5628 138.119 48.3236 138.179 48.0844C138.239 47.8451 138.299 47.6059 138.359 47.4265C138.419 47.2471 138.419 47.0677 138.478 47.0079C138.478 46.948 138.478 46.948 138.478 46.8882V46.8284V46.7088C138.478 46.7088 138.538 46.7088 138.598 46.649C138.658 46.5892 138.777 46.5892 138.897 46.5892C139.017 46.5892 139.136 46.5294 139.256 46.5294C139.375 46.5294 139.435 46.5294 139.495 46.5294C139.555 46.5892 139.615 46.649 139.615 46.7088C139.615 46.7686 139.674 46.8882 139.734 47.0079C139.794 47.3069 139.854 47.6657 139.973 48.0246C140.033 48.3834 140.153 48.7422 140.273 49.1609C140.332 49.2805 140.332 49.4599 140.332 49.5795C140.332 49.6991 140.392 49.8188 140.392 49.9384C140.392 50.058 140.452 50.1178 140.452 50.1776C140.452 50.2374 140.452 50.2374 140.512 50.2972C140.572 50.357 140.512 50.357 140.512 50.357C140.512 50.357 140.512 50.4168 140.572 50.4766C140.631 50.1776 140.751 49.8188 140.811 49.4599C140.871 49.1011 140.99 48.6824 141.05 48.2638C141.11 47.9648 141.17 47.6657 141.229 47.4265C141.289 47.1873 141.349 46.948 141.409 46.7088V46.649C141.409 46.5892 141.469 46.5294 141.469 46.5294C141.528 46.4696 141.588 46.4696 141.588 46.4696C141.648 46.4696 141.648 46.4696 141.708 46.4696C141.768 46.4696 141.827 46.4696 141.887 46.4696C141.947 46.4696 142.067 46.4696 142.127 46.5294C142.186 46.5892 142.306 46.5294 142.366 46.5892C142.426 46.649 142.485 46.5892 142.485 46.5892L142.545 46.649C142.545 46.649 142.545 46.7088 142.605 46.7088C142.605 46.7686 142.605 46.8284 142.605 46.8882C142.605 46.948 142.545 47.0079 142.545 47.1275L142.605 47.2471C142.545 47.4863 142.426 47.7853 142.366 48.0844C142.306 48.3834 142.186 48.7422 142.127 49.0413C142.007 49.5795 141.827 50.058 141.708 50.5962C141.588 51.1345 141.409 51.6129 141.289 52.0316V52.0914V52.1512C141.289 52.2708 141.229 52.3306 141.229 52.3904C141.229 52.4502 141.11 52.51 141.05 52.51C140.99 52.51 140.93 52.51 140.811 52.51C140.691 52.51 140.512 52.51 140.273 52.5699C140.213 52.51 140.093 52.3904 140.033 52.2708C139.973 52.1512 139.914 52.0316 139.854 51.912C139.854 51.7924 139.794 51.7326 139.794 51.613C139.794 51.4933 139.734 51.4335 139.734 51.3139C139.734 51.2541 139.674 51.1943 139.674 51.1345C139.674 51.0747 139.674 51.0149 139.615 51.0149C139.555 50.7159 139.435 50.357 139.375 49.9982C139.316 49.6393 139.196 49.2805 139.136 48.9815C139.076 49.3403 138.957 49.6991 138.897 50.058C138.777 50.4168 138.718 50.8355 138.598 51.1345L138.299 52.0316Z" fill="white"/>
<path d="M143.622 47.3069C143.622 47.2471 143.622 47.2471 143.622 47.1873V47.1275C143.622 47.0677 143.622 47.0078 143.682 46.948C143.741 46.8882 143.861 46.8284 143.981 46.7686C144.1 46.7088 144.28 46.649 144.459 46.5892C144.639 46.5294 144.818 46.4696 144.997 46.4098C145.177 46.35 145.416 46.35 145.655 46.35C145.775 46.35 145.835 46.35 145.894 46.35C145.954 46.35 146.014 46.35 146.134 46.35C146.612 46.4098 146.971 46.5294 147.15 46.8284C147.33 47.1275 147.449 47.5461 147.449 48.0844V48.6226C147.449 48.8618 147.449 49.1011 147.449 49.3403C147.449 49.5795 147.449 49.8187 147.449 50.058C147.449 50.1178 147.449 50.2374 147.449 50.2972C147.449 50.357 147.449 50.4766 147.449 50.5962C147.449 50.7158 147.449 50.7757 147.449 50.8953C147.449 51.0149 147.449 51.0747 147.449 51.1345C147.449 51.2541 147.449 51.3139 147.449 51.4335C147.449 51.4933 147.509 51.5531 147.569 51.6129C147.629 51.6727 147.689 51.6727 147.808 51.6727C147.808 51.7924 147.808 51.8522 147.808 51.9718C147.808 52.0914 147.808 52.1512 147.808 52.211C147.748 52.2708 147.629 52.3904 147.509 52.4502C147.39 52.51 147.21 52.5698 147.031 52.5698C146.911 52.5698 146.732 52.51 146.612 52.4502C146.493 52.3904 146.373 52.2708 146.253 52.211C146.193 52.211 146.193 52.2708 146.134 52.3306C146.074 52.3904 146.014 52.3904 146.014 52.4502C145.835 52.51 145.715 52.5698 145.536 52.5698C145.356 52.5698 145.237 52.6297 145.057 52.6297C144.818 52.6297 144.639 52.5698 144.459 52.51C144.28 52.4502 144.1 52.3306 143.921 52.211C143.741 52.0914 143.622 51.912 143.562 51.6727C143.442 51.4335 143.442 51.1943 143.442 50.8953C143.442 50.5364 143.502 50.1776 143.682 49.9384C143.861 49.6991 144.04 49.4599 144.28 49.3403C144.519 49.1609 144.758 49.1011 144.997 48.9815C145.237 48.9217 145.476 48.8618 145.655 48.8618C145.715 48.8618 145.775 48.8618 145.835 48.8618C145.894 48.8618 145.954 48.8618 146.014 48.8618C146.074 48.8618 146.134 48.8618 146.193 48.8618C146.253 48.8618 146.253 48.8618 146.313 48.8618V48.2638C146.313 48.0246 146.313 47.7853 146.253 47.6657C146.193 47.5461 146.074 47.4863 145.894 47.4863C145.715 47.4863 145.476 47.5461 145.237 47.6059C144.997 47.6657 144.818 47.7255 144.639 47.7853C144.579 47.8451 144.519 47.8451 144.399 47.8451C144.339 47.8451 144.22 47.8451 144.16 47.8451C144.04 47.7255 143.981 47.6657 143.981 47.5461C143.981 47.4265 143.622 47.3667 143.622 47.3069ZM146.014 51.1345C146.014 51.0747 146.014 50.9551 146.014 50.8953C146.014 50.8355 146.014 50.7158 146.014 50.5364V49.6991H145.894C145.835 49.6991 145.775 49.6991 145.715 49.6991C145.655 49.6991 145.595 49.6991 145.536 49.6991C145.416 49.6991 145.296 49.7589 145.177 49.8188C145.057 49.8786 144.938 49.9384 144.878 49.9982C144.758 50.058 144.698 50.1776 144.639 50.2972C144.579 50.4168 144.579 50.5962 144.579 50.7757C144.579 51.0747 144.639 51.2541 144.758 51.3737C144.878 51.4933 144.997 51.5531 145.117 51.5531H145.177C145.356 51.5531 145.536 51.4933 145.655 51.4335C145.835 51.3737 145.954 51.2541 146.014 51.1943C146.014 51.1943 146.014 51.1943 146.014 51.1345Z" fill="white"/>
<path d="M149.304 46.4696C149.364 46.4696 149.423 46.5294 149.543 46.649C149.603 46.7686 149.663 46.8882 149.722 47.0079C149.782 47.1275 149.782 47.2471 149.842 47.4265C149.902 47.6059 149.962 47.7853 150.021 48.0246C150.081 48.2638 150.141 48.4432 150.201 48.6824C150.261 48.9217 150.32 49.1609 150.38 49.3403C150.44 49.5197 150.5 49.759 150.56 49.9384C150.62 50.1178 150.62 50.2972 150.679 50.4766C150.739 50.2972 150.799 50.1178 150.859 49.8786C150.919 49.6393 150.978 49.4599 151.038 49.2805C151.098 49.0413 151.158 48.802 151.218 48.503C151.277 48.2638 151.337 47.9648 151.397 47.7255C151.457 47.5461 151.517 47.3069 151.517 47.1275C151.576 46.9481 151.576 46.7686 151.636 46.5892C151.696 46.5294 151.756 46.4696 151.816 46.4696C151.875 46.4696 151.995 46.4098 152.115 46.4098C152.174 46.4098 152.234 46.4098 152.294 46.4098C152.354 46.4098 152.414 46.4098 152.474 46.4098C152.533 46.4098 152.533 46.4098 152.593 46.4098C152.653 46.4098 152.713 46.4098 152.713 46.4098C152.773 46.5294 152.773 46.649 152.773 46.7088C152.773 46.7686 152.773 46.8882 152.713 47.0677C152.653 47.4265 152.533 47.7853 152.414 48.204C152.294 48.6226 152.174 49.1011 151.995 49.5795C151.875 50.058 151.696 50.5364 151.517 51.0149C151.337 51.4933 151.218 51.9718 151.038 52.4502C150.859 52.8689 150.679 53.2875 150.5 53.5866C150.32 53.8856 150.141 54.1248 150.021 54.3042C149.842 54.4837 149.722 54.6033 149.543 54.6631C149.364 54.7229 149.244 54.7827 149.065 54.7827C148.766 54.7827 148.466 54.7229 148.347 54.6631C148.167 54.5435 148.048 54.4837 148.048 54.364C148.048 54.3042 148.048 54.2444 148.108 54.1248L148.167 53.9454C148.287 53.8856 148.347 53.8856 148.407 53.8856C148.466 53.8856 148.526 53.8856 148.646 53.8856C148.706 53.8856 148.825 53.8856 148.885 53.8856C148.945 53.8856 149.065 53.8258 149.184 53.8258C149.244 53.766 149.364 53.7062 149.423 53.5866C149.483 53.4669 149.603 53.2875 149.663 53.1081C149.722 52.9287 149.782 52.7493 149.842 52.51C149.902 52.3306 149.962 52.0914 150.021 51.912C149.962 51.8522 149.902 51.7326 149.842 51.6728C149.782 51.613 149.782 51.4933 149.722 51.3139C149.722 51.2541 149.663 51.1345 149.603 50.9551C149.543 50.7757 149.483 50.5364 149.364 50.2972C149.304 50.058 149.184 49.759 149.065 49.4001C148.945 49.1011 148.885 48.7422 148.766 48.4432C148.646 48.1442 148.586 47.7853 148.466 47.4863C148.347 47.1873 148.287 46.8882 148.167 46.649C148.227 46.5294 148.347 46.4098 148.466 46.4098C148.586 46.4098 148.945 46.4696 149.304 46.4696Z" fill="white"/>
<path d="M113.241 37.4388C113.42 37.678 113.42 37.9173 113.181 38.0967C112.942 38.2761 112.643 38.3957 112.284 38.4555C111.865 38.5751 111.327 38.6349 110.669 38.6349H110.071C109.653 38.6349 109.234 38.4555 108.875 38.2163C108.516 37.9771 108.217 37.7378 107.978 37.379C107.739 37.08 107.5 36.7211 107.26 36.3623C107.081 36.0035 106.901 35.5848 106.722 35.2858C106.423 34.6877 106.064 33.97 105.705 33.1926C105.287 32.4151 104.868 31.6376 104.449 30.9199C103.971 30.1424 103.492 29.4248 103.014 28.6473C102.476 27.8698 101.997 27.2119 101.459 26.6139C101.399 26.6139 101.339 26.6139 101.22 26.6139C101.16 26.6139 101.04 26.6139 100.981 26.6139H99.4854V36.2427C99.4854 36.6015 99.4855 36.9006 99.4256 37.1996C99.3658 37.4986 99.2462 37.7378 99.007 38.0369C98.7678 38.3359 98.4089 38.5153 97.8707 38.5153C97.3324 38.5751 96.6147 38.5751 95.598 38.5751H94.7607C94.7607 37.2594 94.8206 35.8838 94.8206 34.3289C94.8206 32.7739 94.8206 31.1591 94.8206 29.4248V14.6526C94.8206 13.8751 94.8206 13.1574 94.8206 12.4995C94.8206 11.8417 94.8205 11.1838 94.7607 10.5857C94.7607 10.4661 94.7607 10.3465 94.7607 10.1671C94.7607 9.98766 94.7607 9.86805 94.8206 9.68863C95 9.56902 95.1794 9.44941 95.3588 9.3896C95.5382 9.32979 95.7775 9.26999 96.1363 9.21018C96.1961 9.21018 96.2559 9.21018 96.3157 9.21018C96.3755 9.21018 96.3755 9.21018 96.4353 9.21018C96.4951 9.21018 96.5549 9.15037 96.6745 9.15037C96.7942 9.15037 96.9138 9.15037 97.0334 9.09057H97.2726C97.5118 9.09057 97.8109 9.03076 98.1099 9.03076C98.4089 9.03076 98.708 9.03076 98.9472 9.03076H101.04C101.22 9.03076 101.399 9.03076 101.638 9.03076C101.878 9.03076 102.057 9.03076 102.237 9.03076C104.928 9.15037 106.901 9.92786 108.277 11.2436C109.593 12.5593 110.31 14.6526 110.31 17.4635C110.31 18.3606 110.131 19.2577 109.832 20.0949C109.533 20.9322 109.114 21.7097 108.696 22.3676C108.277 23.0853 107.799 23.6235 107.32 24.1618C106.842 24.6402 106.483 24.9991 106.184 25.2383C107.021 26.4942 107.799 27.7502 108.516 29.0659C109.234 30.3817 109.892 31.6376 110.55 32.7739C111.148 33.9102 111.686 34.8671 112.164 35.7044C112.583 36.6015 112.942 37.1398 113.241 37.4388ZM101.758 24.8197C102.416 24.5804 104.091 22.547 104.629 21.2313C105.047 20.2744 105.406 19.0782 105.406 17.3439C105.406 15.6693 105.047 14.3535 104.33 13.5162C103.612 12.679 102.655 12.2603 101.459 12.2603C101.1 12.2603 100.741 12.2603 100.383 12.2603C100.084 12.2603 99.7845 12.3201 99.5453 12.3201V24.8197H101.28C101.579 24.8197 101.878 24.8197 102.177 24.8197C102.476 24.8197 101.579 24.9393 101.758 24.8197Z" fill="white"/>
<path d="M114.855 10.1671C114.855 8.43268 115.753 7.53558 117.607 7.53558C118.623 7.53558 119.281 7.77481 119.64 8.19345C119.939 8.6121 120.059 9.26997 120.059 10.1073C119.999 10.9445 119.819 11.6622 119.461 12.1407C119.102 12.6789 118.384 12.9182 117.367 12.9182C116.47 12.9182 115.812 12.6789 115.454 12.2603C115.035 11.8416 114.855 11.124 114.855 10.1671ZM119.341 17.5233C119.52 17.8821 119.64 18.2409 119.7 18.6596C119.76 19.0782 119.76 19.7361 119.76 20.693V35.4652C119.76 36.4221 119.58 37.2594 119.162 37.9173C119.102 38.0369 118.982 38.1565 118.803 38.2163C118.683 38.2761 118.444 38.3359 118.145 38.3957C117.846 38.3957 117.427 38.4555 116.949 38.4555C116.47 38.4555 115.812 38.5153 115.095 38.5153V34.9269C115.095 34.2691 115.095 33.6112 115.095 32.9533C115.095 32.2954 115.095 31.5778 115.095 30.8601V23.0853C115.095 22.0685 115.095 21.2313 115.095 20.5136C115.095 19.7959 115.035 19.138 115.035 18.5998C115.274 18.0615 115.812 17.7027 116.47 17.5831C117.188 17.4635 118.025 17.4036 119.042 17.4036L119.341 17.5233Z" fill="white"/>
<path d="M148.526 0.299032L148.466 0.239226C147.928 0.0598064 147.569 0 147.27 0C146.971 0 146.732 0.119613 146.553 0.239226C146.493 0.299032 146.373 0.418645 146.313 0.478451L146.074 0.717677L145.596 1.31574C144.998 1.97361 144.34 2.69129 143.682 3.34916C142.426 4.72471 141.11 6.04045 139.795 7.29638C138.598 8.49251 137.402 9.62884 136.206 10.7054L133.634 10.1671C133.515 10.1671 133.395 10.1671 133.276 10.1671C133.156 10.2269 133.036 10.2867 132.917 10.3465L132.498 10.7054C132.379 10.825 132.319 10.9446 132.319 11.124C132.319 11.3034 132.379 11.423 132.498 11.4828L133.993 12.3799C117.427 25.1187 97.7506 27.7502 87.9424 21.2911C88.5404 27.2119 116.649 36.1231 141.23 9.86806L145.656 14.533C145.775 14.6526 145.895 14.7124 146.074 14.7124C146.254 14.7124 146.373 14.5928 146.433 14.4732L146.912 13.4564C147.091 13.0976 147.151 12.7388 147.151 12.3201C147.151 11.9015 147.031 11.4828 146.852 11.1838L144.519 6.63851C144.938 6.21987 145.297 5.80122 145.715 5.44239C146.373 4.78451 147.031 4.06684 147.629 3.40897L148.108 2.87071L148.347 2.63148C148.407 2.57168 148.526 2.45206 148.586 2.39226C148.706 2.21284 148.825 1.91381 148.825 1.61477C148.825 1.19613 148.766 0.83729 148.526 0.299032Z" fill="#5087C7"/>
<path d="M148.526 1.31569L148.466 1.25589C147.928 1.07647 147.569 1.01666 147.27 1.01666C146.971 1.01666 146.732 1.13628 146.553 1.25589C146.493 1.31569 146.373 1.43531 146.313 1.49511L146.074 1.79415L145.596 2.3324C144.998 2.99028 144.34 3.70795 143.682 4.36582C142.426 5.74137 141.11 7.05711 139.795 8.31305C138.598 9.50918 134.113 13.6358 134.113 13.6358C117.547 26.3746 98.1693 29.4845 87.9424 22.3676C90.215 28.2286 117.905 35.1063 141.23 10.9445C141.23 10.9445 145.656 15.4898 145.835 15.4898C146.014 15.4898 146.134 15.3702 146.194 15.2506L146.672 14.2339C146.852 13.875 146.912 13.5162 146.912 13.0976C146.912 12.6789 146.792 12.2603 146.612 11.9612L144.459 7.77479C144.878 7.35614 145.237 6.9375 145.656 6.57866C146.313 5.92079 146.971 5.20311 147.569 4.54524L148.048 4.00698L148.287 3.76776C148.347 3.70795 148.466 3.58834 148.526 3.52853C148.646 3.34911 148.766 3.05008 148.766 2.75105C148.825 2.21279 148.766 1.85395 148.526 1.31569Z" fill="white"/>
<path d="M139.017 8.0139L141.709 5.2628L135.668 1.37539C135.429 1.19597 135.01 1.07635 134.711 1.07635C134.412 1.07635 133.814 1.37539 133.515 1.55481L132.798 1.97345C132.678 2.03326 132.618 2.15287 132.618 2.27248C132.618 2.3921 132.678 2.51171 132.738 2.63132L139.017 8.0139Z" fill="white"/>
<path d="M146.493 34.9867C147.39 34.9867 148.287 34.8671 149.184 34.6877C150.081 34.5083 150.979 34.1495 151.876 33.671C152.055 34.0896 152.115 34.5681 152.175 34.9867C152.234 35.4054 152.294 35.7642 152.294 36.0035C152.294 36.2427 152.175 36.4819 151.995 36.7211C151.816 36.9604 151.577 37.1996 151.278 37.4388C150.979 37.678 150.68 37.8575 150.321 38.0369C149.962 38.2163 149.603 38.3359 149.244 38.4555H149.304C148.945 38.5751 148.467 38.6349 147.809 38.7545C147.151 38.8742 146.433 38.934 145.716 38.934C144.519 38.934 143.383 38.8144 142.247 38.5153C141.11 38.2163 140.094 37.6182 139.137 36.6613C138.24 35.7642 137.642 34.6279 137.223 33.1926C136.804 31.7572 136.625 30.0826 136.625 28.1688C136.625 25.8962 136.864 23.9824 137.343 22.4274C137.821 20.8724 138.479 19.6165 139.256 18.5998C140.094 17.6429 141.051 16.9252 142.187 16.4468C143.323 15.9683 144.519 15.7889 145.895 15.7889C148.108 15.7889 149.842 16.3869 150.979 17.5831C152.115 18.7792 152.773 20.394 152.952 22.4274C153.012 22.7862 153.012 23.1451 153.012 23.5039C153.012 23.8627 153.012 24.2814 153.012 24.6402C153.012 25.7167 152.952 26.6138 152.773 27.3913C152.474 27.6306 151.995 27.8698 151.278 28.109C150.56 28.3482 149.842 28.5277 149.184 28.6473C148.467 28.7669 147.57 28.8267 146.493 28.8267C145.417 28.8865 144.28 28.8865 143.204 28.8865C142.845 28.8865 142.546 28.8865 142.366 28.8865C142.187 28.8865 141.948 28.8865 141.529 28.8865C141.589 31.2189 142.067 32.8337 142.964 33.671C143.862 34.5083 144.998 34.9867 146.493 34.9867ZM145.237 19.138C144.4 19.2577 143.622 19.8557 142.964 20.8126C142.247 21.8293 141.828 23.3843 141.709 25.4775H143.024C143.802 25.4775 144.639 25.4775 145.536 25.4775C146.373 25.4775 147.031 25.4177 147.51 25.3579C147.629 25.2981 147.749 25.2981 147.869 25.2981C147.988 25.2981 148.108 25.2383 148.227 25.1785C148.287 24.9991 148.347 24.8196 148.347 24.5804C148.407 24.3412 148.407 24.0422 148.407 23.8029C148.407 23.6833 148.407 23.6235 148.407 23.5637C148.407 23.5039 148.407 23.3843 148.407 23.3245V22.846C148.287 21.5901 147.988 20.693 147.57 20.0949C147.151 19.4969 146.493 19.1978 145.596 19.1978H145.237V19.138Z" fill="white"/>
<path d="M76.3404 38.4555C82.2858 38.4555 87.1055 33.6358 87.1055 27.6904C87.1055 21.745 82.2858 16.9252 76.3404 16.9252C70.3949 16.9252 65.5752 21.745 65.5752 27.6904C65.5752 33.6358 70.3949 38.4555 76.3404 38.4555Z" fill="white"/>
<path d="M71.7949 22.0088C71.7949 21.2313 72.2136 20.8725 72.9911 20.8725C73.4097 20.8725 73.7087 20.9921 73.8881 21.1715C74.0078 21.3509 74.0676 21.65 74.0676 22.0088C74.0676 22.3677 73.948 22.6667 73.8283 22.9059C73.6489 23.1451 73.3499 23.2648 72.9312 23.2648C72.5126 23.2648 72.2734 23.1451 72.094 22.9657C71.8547 22.7265 71.7949 22.4275 71.7949 22.0088ZM73.7685 25.1786C73.8283 25.358 73.8881 25.4776 73.8881 25.657C73.8881 25.8364 73.8881 26.1355 73.8881 26.5541V32.9534C73.8881 33.372 73.8283 33.7309 73.6489 34.0299C73.5891 34.0897 73.5891 34.1495 73.4695 34.1495C73.4097 34.2093 73.2901 34.2093 73.1705 34.2093C73.0509 34.2093 72.8714 34.2093 72.6322 34.2093C72.393 34.2093 72.1538 34.2093 71.7949 34.2093V32.6544C71.7949 32.3553 71.7949 32.1161 71.7949 31.8171C71.7949 31.518 71.7949 31.219 71.7949 30.92V27.5708C71.7949 27.1522 71.7949 26.7933 71.7949 26.4345C71.7949 26.1355 71.7949 25.8364 71.7949 25.5972C71.9145 25.358 72.094 25.1786 72.4528 25.1188C72.7518 25.0589 73.1107 25.0589 73.5891 25.0589L73.7685 25.1786Z" fill="#0C5B78"/>
<path d="M80.7063 32.7141C80.7063 32.7739 80.7063 32.8337 80.7063 32.8935C80.7063 32.9533 80.7063 33.0729 80.7063 33.1327C80.7063 33.1925 80.7063 33.3121 80.7063 33.4317C80.7063 33.5513 80.7063 33.6111 80.7063 33.671C80.6465 33.7906 80.5867 33.9102 80.4671 34.0298C80.2278 34.1494 79.9886 34.269 79.6298 34.3886C79.2709 34.4484 78.9719 34.5082 78.6729 34.5082C78.1944 34.5082 77.7758 34.3886 77.4767 34.2092C77.1777 34.0298 76.9385 33.7906 76.7591 33.4317C76.5796 33.1327 76.46 32.7739 76.4002 32.3552C76.3404 31.9964 76.3404 31.5777 76.3404 31.1591V26.6138C76.1012 26.6138 75.862 26.554 75.6826 26.4942C75.5031 26.4344 75.3237 26.3746 75.2041 26.3148C75.2041 26.0157 75.2041 25.8363 75.2041 25.8363C75.2041 25.7765 75.2639 25.7167 75.3237 25.6569C75.4433 25.5373 75.6227 25.4775 75.7424 25.4177C75.862 25.3579 76.0414 25.3579 76.161 25.2981C76.2208 25.2981 76.2806 25.2382 76.3404 25.2981C76.4002 25.2981 76.4002 25.2981 76.46 25.2981C76.46 25.0588 76.46 24.7598 76.5198 24.4608C76.5198 24.1617 76.5796 23.9225 76.5796 23.6235C76.6395 23.3843 76.8189 23.2048 77.1179 23.0254C77.4169 22.846 77.8356 22.7862 78.3738 22.7264V23.0254C78.3738 23.4441 78.3738 23.8029 78.3738 24.1019C78.3738 24.401 78.3738 24.7598 78.3738 25.1186H80.8259C80.8259 25.6569 80.7661 26.0157 80.6465 26.1952C80.5867 26.3746 80.4073 26.4942 80.2278 26.4942C80.168 26.4942 80.1082 26.4942 79.9886 26.4942C79.9288 26.4942 79.8092 26.4942 79.7494 26.4942C79.57 26.4942 79.3905 26.4942 79.2111 26.4942C79.0317 26.4942 78.7925 26.4942 78.4336 26.4942C78.4336 26.9128 78.4336 27.3315 78.4336 27.7501C78.4336 28.1688 78.4336 28.5874 78.4336 28.9462C78.4336 29.1855 78.4336 29.3649 78.4336 29.6041C78.4336 29.7835 78.4336 30.0228 78.4336 30.2022V31.1591C78.4935 31.6375 78.5533 32.0562 78.6729 32.3552C78.7925 32.6542 78.9719 32.8337 79.2709 32.8337C79.3307 32.8337 79.4504 32.8337 79.5102 32.7739C79.6298 32.7739 79.7494 32.7141 79.869 32.6542C79.9886 32.5944 80.1082 32.5944 80.168 32.5346C80.2876 32.4748 80.3474 32.4748 80.3474 32.415L80.7063 32.7141Z" fill="#0C5B78"/>
<path d="M0.326408 10.526V9.92793C0.326408 9.80832 0.326408 9.68871 0.326408 9.56909C0.326408 9.44948 0.326408 9.32987 0.326408 9.21025C0.685247 8.97103 1.2235 8.79161 1.94118 8.79161C2.59905 8.7318 3.31673 8.672 4.09421 8.672C4.8717 8.672 5.64918 8.672 6.42666 8.672C7.98163 8.672 9.29737 8.85142 10.5533 9.15045C11.7494 9.50929 12.7661 10.0475 13.6034 10.7652C14.4407 11.4829 15.0986 12.4398 15.5172 13.6359C15.9359 14.7723 16.1751 16.2076 16.1751 17.8224C16.1751 19.4372 15.9359 20.7529 15.4574 21.8294C14.979 22.9059 14.3809 23.803 13.6034 24.5207C12.826 25.2384 12.0485 25.7168 11.1514 26.0757C10.2543 26.4345 9.47679 26.6139 8.69931 26.7335C8.40028 26.7335 8.10124 26.7335 7.80221 26.6737C7.50318 26.6737 7.20415 26.5541 6.90512 26.4345C6.60608 26.3149 6.42666 26.0757 6.24725 25.8364C6.06783 25.5374 6.00802 25.1786 6.00802 24.6403C6.00802 24.5207 6.12763 24.3413 6.36686 24.2217C6.60608 24.1021 6.84531 24.0422 7.08454 24.0422C7.56299 24.0422 8.04144 23.9226 8.51989 23.7432C8.99834 23.5638 9.47679 23.205 9.83563 22.6667C10.2543 22.1882 10.5533 21.5304 10.8523 20.6931C11.0916 19.8558 11.271 18.8989 11.271 17.7028C11.271 16.6861 11.1514 15.8488 10.9121 15.1311C10.6729 14.4134 10.3739 13.8752 9.95524 13.4565C9.5366 13.0379 9.11795 12.7388 8.5797 12.5594C8.04144 12.38 7.50318 12.2604 6.84531 12.2604C6.48647 12.2604 6.18744 12.2604 5.88841 12.2604C5.58937 12.2604 5.35015 12.2604 5.11092 12.3202V31.3386L5.05112 36.1231C5.05112 36.8408 4.8717 37.4389 4.51286 37.9173C4.27363 38.1566 3.91479 38.336 3.43634 38.3958C3.0177 38.4556 2.35983 38.4556 1.46273 38.4556H0.266602C0.266602 37.1997 0.326408 35.8241 0.326408 34.2691C0.326408 32.7142 0.326408 31.0994 0.326408 29.3052V10.526Z" fill="white"/>
<path d="M24.0099 34.9869C24.0697 35.2261 24.1893 35.4055 24.3687 35.5849C24.5481 35.7643 24.8472 35.8242 25.206 35.7643C25.206 36.0634 25.1462 36.482 25.1462 36.8409C25.1462 37.2595 25.1462 37.4987 25.1462 37.6183C24.907 37.9174 24.5481 38.2164 24.1295 38.4556C23.651 38.6949 23.1128 38.8145 22.4549 38.8743C22.1559 38.8743 21.797 38.8145 21.498 38.6949C21.199 38.5752 20.8999 38.4556 20.6607 38.2762C20.2421 37.9772 19.943 37.6183 19.7038 37.1997C19.4646 36.7811 19.345 36.3624 19.345 35.9438V13.3967C19.345 12.3202 19.345 11.4231 19.345 10.6456C19.345 9.86816 19.2852 9.15048 19.2852 8.49261C19.5244 7.89455 20.0626 7.4759 20.8401 7.35629C21.6176 7.23668 22.5147 7.11707 23.651 7.11707C23.7706 7.59552 23.8903 8.19358 23.8903 8.79165C23.8903 9.38971 23.9501 10.2868 23.9501 11.3633V33.9103C23.8903 34.3888 23.8903 34.6878 24.0099 34.9869Z" fill="white"/>
<path d="M28.6744 20.2744C28.6146 20.1548 28.6146 20.0352 28.6146 19.9156C28.6146 19.8557 28.6146 19.7361 28.6146 19.6763C28.6146 19.5567 28.6744 19.3175 28.7342 19.0783C28.9734 18.8988 29.3322 18.6596 29.7509 18.4204C30.2293 18.1812 30.7078 17.9419 31.3657 17.7027C31.9637 17.4635 32.6216 17.2841 33.3393 17.1645C34.057 17.0448 34.7746 16.9252 35.5521 16.9252C35.911 16.9252 36.1502 16.9252 36.3296 16.9252C36.509 16.9252 36.7482 16.9252 37.1071 16.985C38.8415 17.1047 40.0974 17.7027 40.7553 18.7194C41.4131 19.7959 41.772 21.2911 41.772 23.2049V25.1187C41.772 25.956 41.772 26.7933 41.772 27.6306C41.772 28.4679 41.772 29.3052 41.7122 30.1425C41.7122 30.3817 41.7122 30.7405 41.7122 31.0396C41.7122 31.3984 41.7122 31.7572 41.7122 32.1161C41.7122 32.4749 41.7122 32.8337 41.7122 33.1328C41.7122 33.4318 41.7122 33.7308 41.7122 33.9103C41.7122 34.2691 41.7122 34.6279 41.772 34.8672C41.8318 35.1064 41.9514 35.2858 42.1308 35.4652C42.3102 35.6446 42.5495 35.7045 42.9083 35.6446C42.9083 35.9437 42.8485 36.3025 42.8485 36.7212C42.8485 37.1398 42.8485 37.379 42.8485 37.5585C42.6691 37.8575 42.3102 38.0967 41.8318 38.3957C41.3533 38.635 40.8151 38.8144 40.0974 38.8144C39.619 38.8144 39.0807 38.6948 38.6022 38.3957C38.1238 38.1565 37.7051 37.8575 37.4061 37.4986C37.2865 37.5585 37.1071 37.6781 36.9277 37.8575C36.7482 37.9771 36.5688 38.0967 36.4492 38.2163C35.911 38.4555 35.3727 38.635 34.8344 38.6948C34.2962 38.7546 33.6981 38.8144 33.1001 38.8144C32.3226 38.8144 31.6049 38.6948 30.947 38.4555C30.2293 38.2163 29.6313 37.8575 29.093 37.379C28.5548 36.9006 28.0763 36.3025 27.7773 35.525C27.4782 34.7475 27.2988 33.9103 27.2988 32.8337C27.2988 31.518 27.5979 30.3817 28.1361 29.4846C28.6744 28.5875 29.3322 27.8698 30.1695 27.3316C30.947 26.7933 31.7843 26.3746 32.6814 26.1354C33.5785 25.8962 34.356 25.7168 35.0737 25.657C35.2531 25.657 35.4923 25.5972 35.7315 25.5972C35.9708 25.5972 36.1502 25.5972 36.3894 25.5972C36.5688 25.5972 36.7482 25.5972 36.9277 25.5972C37.0473 25.5972 37.2267 25.5972 37.3463 25.657V23.5039C37.3463 22.547 37.2865 21.8294 37.1071 21.4107C36.7482 20.9323 36.3296 20.693 35.5521 20.693C34.8344 20.693 34.1168 20.8127 33.2795 21.0519C32.502 21.2911 31.7843 21.5303 31.1264 21.7696C30.8872 21.8892 30.648 21.949 30.349 22.0088C30.1695 22.1284 29.8705 22.1284 29.5117 22.1284C29.2126 21.8294 28.9734 21.4705 28.8538 21.1117C28.794 20.7528 28.7342 20.4538 28.6744 20.2744ZM37.1071 33.6112C37.1669 33.372 37.1669 33.073 37.1669 32.7141C37.1669 32.3553 37.1669 31.9965 37.1669 31.518V28.5875H36.7482C36.509 28.5875 36.2698 28.5875 36.0904 28.5875C35.8511 28.5875 35.6717 28.6473 35.4325 28.6473H35.4923C35.0139 28.7071 34.5952 28.8865 34.1766 29.0061C33.7579 29.1856 33.3991 29.4248 33.0402 29.664C32.7412 29.963 32.4422 30.3219 32.2628 30.7405C32.0833 31.1592 31.9637 31.6974 31.9637 32.3553C31.9637 33.372 32.1431 34.0897 32.502 34.5083C32.8608 34.927 33.3393 35.1662 33.8775 35.226H34.1168C34.7148 35.226 35.3129 35.1064 35.8511 34.8672C36.4492 34.6279 36.8679 34.3289 37.1071 33.9701L37.0473 34.0299C37.0473 34.0299 37.0473 34.0299 37.0473 33.9103C37.0473 33.8505 37.1071 33.7308 37.1071 33.6112Z" fill="white"/>
<path d="M54.5108 20.5735C53.7932 20.5735 53.1951 20.7529 52.597 21.052C51.999 21.351 51.5205 21.7696 51.1019 22.3079L51.2215 22.1883V35.7643C51.2215 36.2428 51.2215 36.6614 51.1617 36.9605C51.1019 37.2595 50.9823 37.5585 50.743 37.8576C50.6234 37.9772 50.444 38.0968 50.2646 38.1566C50.0852 38.2164 49.9057 38.2762 49.6665 38.336C49.4273 38.3958 49.1881 38.3958 48.8292 38.3958C48.5302 38.3958 48.1115 38.3958 47.6331 38.3958H46.4968C46.4968 37.1997 46.5566 35.8839 46.5566 34.4486C46.5566 32.9534 46.5566 31.3985 46.5566 29.7239V22.3677C46.5566 21.65 46.4968 21.052 46.437 20.5137C46.3772 19.9754 46.2575 19.497 46.0781 19.0783C46.3772 18.7195 47.035 18.3607 47.9321 18.0018C48.0517 17.942 48.2312 17.942 48.291 17.942C48.4106 17.942 48.4704 17.942 48.5302 17.942C48.9488 17.942 49.2479 18.0018 49.5469 18.1812C49.8459 18.3607 49.9655 18.5999 50.145 18.8391C50.5636 18.5401 51.0421 18.2411 51.4607 18.0616C51.8793 17.8822 52.298 17.7028 52.7166 17.5234C53.1951 17.4038 53.6735 17.2841 54.0922 17.1645C54.5706 17.1047 55.0491 17.0449 55.5873 17.0449C56.9629 17.0449 58.0992 17.2243 58.9365 17.5832C59.7738 17.942 60.4317 18.4205 60.9699 19.0783C61.4484 19.7362 61.8072 20.5735 61.9268 21.5304C62.1062 22.4873 62.1661 23.6236 62.1661 24.8796V31.5181C62.1661 32.7142 62.1661 33.8505 62.1661 34.927C62.1661 36.0036 62.2259 36.9605 62.2259 37.7978C62.1062 37.9174 61.9268 38.037 61.7474 38.1566C61.568 38.2164 61.3288 38.336 60.9699 38.336C60.6709 38.3958 60.2522 38.3958 59.7738 38.4556C59.2953 38.4556 58.6973 38.5154 57.9198 38.5154C57.6208 37.9174 57.4413 37.2595 57.4413 36.5418V24.9394C57.4413 23.3246 57.2021 22.2481 56.7835 21.5902C56.4246 20.9323 55.6472 20.5735 54.5108 20.5735Z" fill="white"/>
</svg>
